<svg xmlns="http://www.w3.org/2000/svg" width="41.414" height="38.653" viewBox="0 0 41.414 38.653">
  <g id="Raggruppa_126" data-name="Raggruppa 126" transform="translate(-62 -387)">
    <path id="Tracciato_381" data-name="Tracciato 381" d="M30.18,42.2a.69.69,0,0,0-1.18.49.687.687,0,0,0,.055.262.8.8,0,0,0,.145.228.7.7,0,0,0,.98,0,.713.713,0,0,0,.145-.228.651.651,0,0,0,0-.525.713.713,0,0,0-.145-.228" transform="translate(53.017 373.986)"/>
    <path id="Tracciato_382" data-name="Tracciato 382" d="M39.344,0H2.071A2.073,2.073,0,0,0,0,2.071v28.99a2.073,2.073,0,0,0,2.071,2.071H15.185v4.141H13.115a.69.69,0,1,0,0,1.38H28.3a.69.69,0,1,0,0-1.38H26.229V33.131H39.344a2.073,2.073,0,0,0,2.071-2.071V2.071A2.073,2.073,0,0,0,39.344,0M2.071,1.38H39.344a.691.691,0,0,1,.69.69V26.229H1.38V2.071a.691.691,0,0,1,.69-.69M24.849,37.273H16.566V33.131h8.283Zm14.495-5.522H2.071a.691.691,0,0,1-.69-.69V27.61H40.034v3.451a.691.691,0,0,1-.69.69" transform="translate(62 387)"/>
  </g>
</svg>
