<svg xmlns="http://www.w3.org/2000/svg" width="14.637" height="14.637" viewBox="0 0 14.637 14.637">
  <path id="edit_icon" data-name="edit icon" d="M14.6,14.071,13.2,9.908h0c0-.005,0-.01-.006-.015l-.006-.015a.4.4,0,0,0-.033-.062l0,0a.408.408,0,0,0-.047-.057l0,0h0l0,0-7.8-7.8h0L4.041.69A2.368,2.368,0,0,0,.691,4.04L1.942,5.291h0L9.751,13.1h0a.407.407,0,0,0,.057.047l.015.01a.4.4,0,0,0,.058.031l.005,0a.392.392,0,0,0,.053.017L14.1,14.613h0a.405.405,0,0,0,.5-.543M10.038,12.24,2.8,5l2.2-2.2,7.235,7.235ZM.811,2.365a1.558,1.558,0,0,1,2.657-1.1l.965.965-2.2,2.2-.965-.965a1.553,1.553,0,0,1-.454-1.1m9.974,10.274,1.855-1.855.947,2.8Z" transform="translate(0 0.001)" fill="#777"/>
</svg>
