<svg id="iphone_icon" data-name="iphone icon" xmlns="http://www.w3.org/2000/svg" width="21.187" height="39" viewBox="0 0 21.187 39">
  <path id="Tracciato_383" data-name="Tracciato 383" d="M18.51,0H2.677A2.68,2.68,0,0,0,0,2.678V36.323A2.68,2.68,0,0,0,2.677,39H18.51a2.68,2.68,0,0,0,2.677-2.677V2.678A2.68,2.68,0,0,0,18.51,0M1.4,9.312h18.4V29.687H1.4ZM2.677,1.4H18.51a1.282,1.282,0,0,1,1.281,1.281V7.916H1.4V2.678A1.282,1.282,0,0,1,2.677,1.4M18.51,37.6H2.677A1.282,1.282,0,0,1,1.4,36.323V31.083H19.791v5.239A1.281,1.281,0,0,1,18.51,37.6"/>
  <path id="Tracciato_384" data-name="Tracciato 384" d="M13.453,7.065h1.979a.7.7,0,0,0,0-1.4H13.453a.7.7,0,1,0,0,1.4" transform="translate(-3.85 -1.711)"/>
  <path id="Tracciato_385" data-name="Tracciato 385" d="M15.516,48.626a.442.442,0,0,0-.063-.126l-.084-.1a.733.733,0,0,0-.991,0,.692.692,0,0,0-.2.5.7.7,0,0,0,.2.5.7.7,0,0,0,1.194-.5.937.937,0,0,0-.014-.14.448.448,0,0,0-.042-.126" transform="translate(-4.278 -14.547)"/>
</svg>
