<svg id="Raggruppa_128" data-name="Raggruppa 128" xmlns="http://www.w3.org/2000/svg" width="41" height="40.999" viewBox="0 0 41 40.999">
  <path id="Tracciato_386" data-name="Tracciato 386" d="M41,20.5A20.389,20.389,0,0,0,37,8.355l.023-.014-.555-.688c-.048-.059-.1-.115-.149-.174l-.055-.063a20.448,20.448,0,0,0-8.7-6.161l-.03-.011c-.264-.1-.53-.185-.8-.271L26.493.9q-.345-.1-.695-.2c-.124-.034-.25-.066-.375-.1C25.217.551,25.01.5,24.8.458c-.16-.034-.321-.065-.482-.1-.185-.035-.369-.07-.555-.1s-.386-.056-.579-.081C23.025.16,22.863.137,22.7.12c-.233-.025-.468-.042-.7-.059-.13-.009-.258-.023-.389-.03Q21.058,0,20.5,0T19.39.031c-.13.006-.259.02-.389.03-.235.016-.47.034-.7.059-.163.017-.325.041-.488.063-.193.025-.386.05-.578.081s-.371.064-.555.1c-.162.031-.323.061-.483.1-.207.045-.413.092-.619.143q-.189.047-.376.1-.35.093-.695.2l-.242.077c-.268.085-.534.174-.8.271l-.029.011a20.451,20.451,0,0,0-8.7,6.161l-.054.063c-.049.059-.1.115-.149.174l-.555.688L4,8.355A20.448,20.448,0,0,0,4,32.644l-.022.014.555.688c.048.059.1.115.149.174l.054.063a20.451,20.451,0,0,0,8.7,6.161l.029.011c.264.1.53.185.8.271l.242.077q.345.1.695.2.188.05.376.1c.206.051.411.1.619.143.16.034.321.065.483.1.184.035.368.07.555.1s.385.056.578.081c.163.022.325.045.488.063.232.025.468.042.7.059.13.009.259.023.389.029Q19.942,41,20.5,41t1.109-.031c.131-.006.259-.02.389-.029.235-.017.47-.034.7-.059.163-.017.325-.041.487-.063.193-.025.387-.05.579-.081s.37-.064.555-.1c.161-.031.322-.061.482-.1.207-.044.414-.092.619-.143.125-.031.251-.063.375-.1q.35-.093.695-.2l.243-.077c.268-.085.533-.174.8-.271l.03-.011a20.448,20.448,0,0,0,8.7-6.161l.055-.063c.048-.059.1-.115.149-.174l.555-.688L37,32.644A20.389,20.389,0,0,0,41,20.5M27.025,38.276l-.063.023q-.394.143-.8.27l-.152.045c-.128.039-.258.074-.388.11a18.078,18.078,0,0,0,4.336-7.53,22.685,22.685,0,0,1,4.691,1.865,19,19,0,0,1-7.629,5.217m-12.192.293q-.4-.127-.8-.27l-.063-.023a19,19,0,0,1-7.629-5.217,22.692,22.692,0,0,1,4.692-1.865,18.069,18.069,0,0,0,4.336,7.53c-.129-.037-.26-.071-.388-.11l-.151-.045m-.86-35.845.063-.023q.394-.143.8-.27l.151-.045c.128-.039.259-.074.388-.11a18.069,18.069,0,0,0-4.336,7.53A22.692,22.692,0,0,1,6.345,7.941a19,19,0,0,1,7.629-5.217m12.193-.293q.4.127.8.27l.063.023a19,19,0,0,1,7.629,5.217,22.685,22.685,0,0,1-4.691,1.865,18.078,18.078,0,0,0-4.336-7.53c.13.037.26.071.388.11l.152.045m5.358,17.286A35.818,35.818,0,0,0,30.4,11.29,23.875,23.875,0,0,0,35.65,9.154a18.829,18.829,0,0,1,3.765,10.563ZM21.282,1.637c2.935.507,5.537,3.824,7.112,8.563a36.018,36.018,0,0,1-7.112.821Zm-1.564,9.384a36.01,36.01,0,0,1-7.111-.821c1.575-4.739,4.176-8.056,7.111-8.563Zm0,1.563v7.134H11.039a33.739,33.739,0,0,1,1.118-8.025,37.441,37.441,0,0,0,7.561.892m0,8.7v7.134a37.441,37.441,0,0,0-7.561.892,33.739,33.739,0,0,1-1.118-8.025Zm0,8.7v9.384c-2.935-.507-5.536-3.824-7.111-8.563a36.01,36.01,0,0,1,7.111-.821m1.564,0a36.018,36.018,0,0,1,7.112.821c-1.575,4.739-4.177,8.056-7.112,8.563Zm0-1.563V21.282H29.96a33.7,33.7,0,0,1-1.118,8.025,37.435,37.435,0,0,0-7.561-.892m0-8.7V12.584a37.434,37.434,0,0,0,7.561-.892,33.7,33.7,0,0,1,1.118,8.025ZM10.6,11.29a35.818,35.818,0,0,0-1.129,8.427H1.584A18.834,18.834,0,0,1,5.349,9.154,23.875,23.875,0,0,0,10.6,11.29M9.475,21.282A35.818,35.818,0,0,0,10.6,29.709a23.891,23.891,0,0,0-5.254,2.136A18.834,18.834,0,0,1,1.584,21.282ZM30.4,29.709a35.818,35.818,0,0,0,1.129-8.427h7.891A18.829,18.829,0,0,1,35.65,31.845,23.875,23.875,0,0,0,30.4,29.709"/>
</svg>
